<mxfile host="app.diagrams.net" modified="2024-02-16T06:25:12.643Z" agent="Mozilla/5.0 (Windows NT 10.0; Win64; x64) AppleWebKit/537.36 (KHTML, like Gecko) Chrome/121.0.0.0 Safari/537.36" etag="5wFoSPuO-EUeJgbhrLVY" version="23.1.1" type="github">
  <diagram name="Page-1" id="b520641d-4fe3-3701-9064-5fc419738815">
    <mxGraphModel dx="1205" dy="510" grid="1" gridSize="10" guides="1" tooltips="1" connect="1" arrows="1" fold="1" page="1" pageScale="1" pageWidth="1100" pageHeight="850" background="none" math="0" shadow="0">
      <root>
        <mxCell id="0" />
        <mxCell id="1" parent="0" />
        <mxCell id="21ea969265ad0168-22" value="Function_2" style="swimlane;html=1;fontStyle=0;childLayout=stackLayout;horizontal=1;startSize=26;fillColor=#e0e0e0;horizontalStack=0;resizeParent=1;resizeLast=0;collapsible=1;marginBottom=0;swimlaneFillColor=#ffffff;align=center;rounded=1;shadow=0;comic=0;labelBackgroundColor=none;strokeWidth=1;fontFamily=Verdana;fontSize=12" parent="1" vertex="1">
          <mxGeometry x="560" y="200" width="160" height="52" as="geometry" />
        </mxCell>
        <mxCell id="21ea969265ad0168-23" value="Management&amp;nbsp;" style="text;html=1;strokeColor=none;fillColor=none;spacingLeft=4;spacingRight=4;whiteSpace=wrap;overflow=hidden;rotatable=0;points=[[0,0.5],[1,0.5]];portConstraint=eastwest;" parent="21ea969265ad0168-22" vertex="1">
          <mxGeometry y="26" width="160" height="26" as="geometry" />
        </mxCell>
        <mxCell id="21ea969265ad0168-38" style="edgeStyle=orthogonalEdgeStyle;html=1;labelBackgroundColor=none;startFill=0;startSize=8;endFill=1;endSize=8;fontFamily=Verdana;fontSize=12;exitX=0.5;exitY=0;exitDx=0;exitDy=0;entryX=0.5;entryY=1;entryDx=0;entryDy=0;" parent="1" source="21ea969265ad0168-22" edge="1">
          <mxGeometry relative="1" as="geometry">
            <mxPoint x="640" y="204" as="sourcePoint" />
            <mxPoint x="640" y="130" as="targetPoint" />
          </mxGeometry>
        </mxCell>
        <mxCell id="cw0JSue5sZhr3ZPxxwcu-1" value="Client" style="rounded=0;whiteSpace=wrap;html=1;" vertex="1" parent="1">
          <mxGeometry x="880" y="74" width="120" height="60" as="geometry" />
        </mxCell>
        <mxCell id="cw0JSue5sZhr3ZPxxwcu-3" value="Sends Request" style="text;html=1;strokeColor=none;fillColor=none;align=center;verticalAlign=middle;whiteSpace=wrap;rounded=0;" vertex="1" parent="1">
          <mxGeometry x="830" y="180" width="60" height="30" as="geometry" />
        </mxCell>
        <mxCell id="cw0JSue5sZhr3ZPxxwcu-4" value="Receives Reply" style="text;html=1;strokeColor=none;fillColor=none;align=center;verticalAlign=middle;whiteSpace=wrap;rounded=0;" vertex="1" parent="1">
          <mxGeometry x="770" y="134" width="60" height="30" as="geometry" />
        </mxCell>
        <mxCell id="cw0JSue5sZhr3ZPxxwcu-5" value="" style="endArrow=classic;html=1;rounded=0;entryX=0.5;entryY=1;entryDx=0;entryDy=0;exitX=0;exitY=0.5;exitDx=0;exitDy=0;" edge="1" parent="1" source="21ea969265ad0168-22" target="cw0JSue5sZhr3ZPxxwcu-6">
          <mxGeometry width="50" height="50" relative="1" as="geometry">
            <mxPoint x="560" y="90" as="sourcePoint" />
            <mxPoint x="460" y="90" as="targetPoint" />
          </mxGeometry>
        </mxCell>
        <mxCell id="cw0JSue5sZhr3ZPxxwcu-6" value="Freelancer" style="rounded=0;whiteSpace=wrap;html=1;" vertex="1" parent="1">
          <mxGeometry x="340" y="70" width="120" height="60" as="geometry" />
        </mxCell>
        <mxCell id="cw0JSue5sZhr3ZPxxwcu-8" value="Receives&amp;nbsp;&lt;br&gt;Request" style="text;html=1;strokeColor=none;fillColor=none;align=center;verticalAlign=middle;whiteSpace=wrap;rounded=0;" vertex="1" parent="1">
          <mxGeometry x="440" y="190" width="60" height="30" as="geometry" />
        </mxCell>
        <mxCell id="cw0JSue5sZhr3ZPxxwcu-9" value="" style="endArrow=classic;html=1;rounded=0;exitX=0.843;exitY=1.003;exitDx=0;exitDy=0;exitPerimeter=0;entryX=0;entryY=0;entryDx=0;entryDy=0;" edge="1" parent="1" source="cw0JSue5sZhr3ZPxxwcu-6" target="21ea969265ad0168-22">
          <mxGeometry width="50" height="50" relative="1" as="geometry">
            <mxPoint x="520" y="200" as="sourcePoint" />
            <mxPoint x="550" y="108" as="targetPoint" />
          </mxGeometry>
        </mxCell>
        <mxCell id="cw0JSue5sZhr3ZPxxwcu-10" value="Receives&amp;nbsp;&lt;br&gt;Reply" style="text;html=1;strokeColor=none;fillColor=none;align=center;verticalAlign=middle;whiteSpace=wrap;rounded=0;" vertex="1" parent="1">
          <mxGeometry x="490" y="130" width="60" height="30" as="geometry" />
        </mxCell>
        <mxCell id="cw0JSue5sZhr3ZPxxwcu-11" value="" style="endArrow=classic;html=1;rounded=0;exitX=0.5;exitY=1;exitDx=0;exitDy=0;entryX=1.021;entryY=-0.027;entryDx=0;entryDy=0;entryPerimeter=0;" edge="1" parent="1" source="cw0JSue5sZhr3ZPxxwcu-1" target="21ea969265ad0168-23">
          <mxGeometry width="50" height="50" relative="1" as="geometry">
            <mxPoint x="520" y="200" as="sourcePoint" />
            <mxPoint x="570" y="150" as="targetPoint" />
          </mxGeometry>
        </mxCell>
        <mxCell id="cw0JSue5sZhr3ZPxxwcu-13" value="" style="endArrow=classic;html=1;rounded=0;entryX=0.192;entryY=1.025;entryDx=0;entryDy=0;entryPerimeter=0;" edge="1" parent="1" target="cw0JSue5sZhr3ZPxxwcu-1">
          <mxGeometry width="50" height="50" relative="1" as="geometry">
            <mxPoint x="720" y="210" as="sourcePoint" />
            <mxPoint x="570" y="150" as="targetPoint" />
            <Array as="points">
              <mxPoint x="800" y="180" />
            </Array>
          </mxGeometry>
        </mxCell>
        <mxCell id="cw0JSue5sZhr3ZPxxwcu-15" value="Display" style="text;html=1;strokeColor=none;fillColor=none;align=center;verticalAlign=middle;whiteSpace=wrap;rounded=0;" vertex="1" parent="1">
          <mxGeometry x="640" y="150" width="60" height="30" as="geometry" />
        </mxCell>
        <mxCell id="cw0JSue5sZhr3ZPxxwcu-21" value="" style="rounded=0;whiteSpace=wrap;html=1;" vertex="1" parent="1">
          <mxGeometry x="580" y="70" width="120" height="60" as="geometry" />
        </mxCell>
        <mxCell id="cw0JSue5sZhr3ZPxxwcu-22" value="Website" style="text;html=1;strokeColor=none;fillColor=none;align=center;verticalAlign=middle;whiteSpace=wrap;rounded=0;" vertex="1" parent="1">
          <mxGeometry x="610" y="85" width="60" height="30" as="geometry" />
        </mxCell>
        <mxCell id="cw0JSue5sZhr3ZPxxwcu-24" value="" style="rounded=0;whiteSpace=wrap;html=1;" vertex="1" parent="1">
          <mxGeometry x="190" y="425" width="120" height="60" as="geometry" />
        </mxCell>
        <mxCell id="cw0JSue5sZhr3ZPxxwcu-26" value="User" style="text;html=1;strokeColor=none;fillColor=none;align=center;verticalAlign=middle;whiteSpace=wrap;rounded=0;" vertex="1" parent="1">
          <mxGeometry x="220" y="440" width="60" height="30" as="geometry" />
        </mxCell>
        <mxCell id="cw0JSue5sZhr3ZPxxwcu-31" value="" style="endArrow=classic;html=1;rounded=0;exitX=1;exitY=0.5;exitDx=0;exitDy=0;" edge="1" parent="1" source="cw0JSue5sZhr3ZPxxwcu-24">
          <mxGeometry width="50" height="50" relative="1" as="geometry">
            <mxPoint x="520" y="490" as="sourcePoint" />
            <mxPoint x="460" y="455" as="targetPoint" />
          </mxGeometry>
        </mxCell>
        <mxCell id="cw0JSue5sZhr3ZPxxwcu-32" value="Login" style="rounded=1;whiteSpace=wrap;html=1;" vertex="1" parent="1">
          <mxGeometry x="470" y="425" width="120" height="60" as="geometry" />
        </mxCell>
        <mxCell id="cw0JSue5sZhr3ZPxxwcu-33" value="" style="endArrow=classic;html=1;rounded=0;exitX=1.005;exitY=0.382;exitDx=0;exitDy=0;entryX=0.002;entryY=0.027;entryDx=0;entryDy=0;entryPerimeter=0;exitPerimeter=0;" edge="1" parent="1" source="cw0JSue5sZhr3ZPxxwcu-32" target="cw0JSue5sZhr3ZPxxwcu-35">
          <mxGeometry width="50" height="50" relative="1" as="geometry">
            <mxPoint x="600" y="450" as="sourcePoint" />
            <mxPoint x="750" y="450" as="targetPoint" />
          </mxGeometry>
        </mxCell>
        <mxCell id="cw0JSue5sZhr3ZPxxwcu-34" value="Function_2" style="swimlane;html=1;fontStyle=0;childLayout=stackLayout;horizontal=1;startSize=26;fillColor=#e0e0e0;horizontalStack=0;resizeParent=1;resizeLast=0;collapsible=1;marginBottom=0;swimlaneFillColor=#ffffff;align=center;rounded=1;shadow=0;comic=0;labelBackgroundColor=none;strokeWidth=1;fontFamily=Verdana;fontSize=12" vertex="1" parent="1">
          <mxGeometry x="760" y="425" width="160" height="52" as="geometry" />
        </mxCell>
        <mxCell id="cw0JSue5sZhr3ZPxxwcu-35" value="Profile" style="text;html=1;strokeColor=none;fillColor=none;spacingLeft=4;spacingRight=4;whiteSpace=wrap;overflow=hidden;rotatable=0;points=[[0,0.5],[1,0.5]];portConstraint=eastwest;" vertex="1" parent="cw0JSue5sZhr3ZPxxwcu-34">
          <mxGeometry y="26" width="160" height="26" as="geometry" />
        </mxCell>
        <mxCell id="cw0JSue5sZhr3ZPxxwcu-37" value="Function_2" style="swimlane;html=1;fontStyle=0;childLayout=stackLayout;horizontal=1;startSize=25;fillColor=#e0e0e0;horizontalStack=0;resizeParent=1;resizeLast=0;collapsible=1;marginBottom=0;swimlaneFillColor=#ffffff;align=center;rounded=1;shadow=0;comic=0;labelBackgroundColor=none;strokeWidth=1;fontFamily=Verdana;fontSize=12" vertex="1" parent="1">
          <mxGeometry x="760" y="490" width="160" height="51" as="geometry" />
        </mxCell>
        <mxCell id="cw0JSue5sZhr3ZPxxwcu-38" value="Browse" style="text;html=1;strokeColor=none;fillColor=none;spacingLeft=4;spacingRight=4;whiteSpace=wrap;overflow=hidden;rotatable=0;points=[[0,0.5],[1,0.5]];portConstraint=eastwest;" vertex="1" parent="cw0JSue5sZhr3ZPxxwcu-37">
          <mxGeometry y="25" width="160" height="26" as="geometry" />
        </mxCell>
        <mxCell id="cw0JSue5sZhr3ZPxxwcu-41" value="" style="endArrow=classic;html=1;rounded=0;entryX=-0.026;entryY=0.033;entryDx=0;entryDy=0;entryPerimeter=0;" edge="1" parent="1" target="cw0JSue5sZhr3ZPxxwcu-38">
          <mxGeometry width="50" height="50" relative="1" as="geometry">
            <mxPoint x="590" y="460" as="sourcePoint" />
            <mxPoint x="570" y="460" as="targetPoint" />
          </mxGeometry>
        </mxCell>
        <mxCell id="cw0JSue5sZhr3ZPxxwcu-42" value="Function_2" style="swimlane;html=1;fontStyle=0;childLayout=stackLayout;horizontal=1;startSize=25;fillColor=#e0e0e0;horizontalStack=0;resizeParent=1;resizeLast=0;collapsible=1;marginBottom=0;swimlaneFillColor=#ffffff;align=center;rounded=1;shadow=0;comic=0;labelBackgroundColor=none;strokeWidth=1;fontFamily=Verdana;fontSize=12" vertex="1" parent="1">
          <mxGeometry x="760" y="550" width="160" height="51" as="geometry" />
        </mxCell>
        <mxCell id="cw0JSue5sZhr3ZPxxwcu-43" value="Manage" style="text;html=1;strokeColor=none;fillColor=none;spacingLeft=4;spacingRight=4;whiteSpace=wrap;overflow=hidden;rotatable=0;points=[[0,0.5],[1,0.5]];portConstraint=eastwest;" vertex="1" parent="cw0JSue5sZhr3ZPxxwcu-42">
          <mxGeometry y="25" width="160" height="26" as="geometry" />
        </mxCell>
        <mxCell id="cw0JSue5sZhr3ZPxxwcu-44" value="" style="endArrow=classic;html=1;rounded=0;entryX=0;entryY=0.5;entryDx=0;entryDy=0;" edge="1" parent="1" target="cw0JSue5sZhr3ZPxxwcu-42">
          <mxGeometry width="50" height="50" relative="1" as="geometry">
            <mxPoint x="590" y="480" as="sourcePoint" />
            <mxPoint x="766" y="526" as="targetPoint" />
          </mxGeometry>
        </mxCell>
        <mxCell id="cw0JSue5sZhr3ZPxxwcu-45" value="Function_2" style="swimlane;html=1;fontStyle=0;childLayout=stackLayout;horizontal=1;startSize=25;fillColor=#e0e0e0;horizontalStack=0;resizeParent=1;resizeLast=0;collapsible=1;marginBottom=0;swimlaneFillColor=#ffffff;align=center;rounded=1;shadow=0;comic=0;labelBackgroundColor=none;strokeWidth=1;fontFamily=Verdana;fontSize=12" vertex="1" parent="1">
          <mxGeometry x="760" y="610" width="160" height="51" as="geometry" />
        </mxCell>
        <mxCell id="cw0JSue5sZhr3ZPxxwcu-46" value="Group" style="text;html=1;strokeColor=none;fillColor=none;spacingLeft=4;spacingRight=4;whiteSpace=wrap;overflow=hidden;rotatable=0;points=[[0,0.5],[1,0.5]];portConstraint=eastwest;" vertex="1" parent="cw0JSue5sZhr3ZPxxwcu-45">
          <mxGeometry y="25" width="160" height="26" as="geometry" />
        </mxCell>
      </root>
    </mxGraphModel>
  </diagram>
</mxfile>
